<svg width="121" height="182" viewBox="0 0 121 182" fill="none" xmlns="http://www.w3.org/2000/svg">
<circle cx="60.5" cy="60" r="57.5" stroke="#E04747"  stroke-width="5"/>
<path d="M32.2715 172H25.832L25.873 167.57H32.2715C34.0078 167.57 35.4639 167.188 36.6396 166.422C37.8154 165.643 38.7041 164.528 39.3057 163.079C39.9072 161.616 40.208 159.866 40.208 157.829V156.291C40.208 154.719 40.0371 153.331 39.6953 152.128C39.3535 150.925 38.8477 149.913 38.1777 149.093C37.5215 148.272 36.708 147.65 35.7373 147.227C34.7666 146.803 33.6523 146.591 32.3945 146.591H25.709V142.141H32.3945C34.3906 142.141 36.209 142.476 37.8496 143.146C39.5039 143.815 40.9326 144.779 42.1357 146.037C43.3525 147.281 44.2822 148.771 44.9248 150.508C45.5811 152.244 45.9092 154.186 45.9092 156.332V157.829C45.9092 159.962 45.5811 161.903 44.9248 163.653C44.2822 165.39 43.3525 166.88 42.1357 168.124C40.9326 169.368 39.4971 170.325 37.8291 170.995C36.1611 171.665 34.3086 172 32.2715 172ZM28.9902 142.141V172H23.3506V142.141H28.9902ZM60.2646 172.41C58.583 172.41 57.0723 172.137 55.7324 171.59C54.3926 171.043 53.251 170.284 52.3076 169.313C51.3779 168.329 50.6602 167.188 50.1543 165.889C49.6621 164.576 49.416 163.168 49.416 161.664V160.844C49.416 159.135 49.6621 157.583 50.1543 156.188C50.6465 154.78 51.3438 153.57 52.2461 152.559C53.1484 151.547 54.2285 150.768 55.4863 150.221C56.7441 149.674 58.1318 149.4 59.6494 149.4C61.2217 149.4 62.6094 149.667 63.8125 150.2C65.0156 150.72 66.0205 151.458 66.8271 152.415C67.6338 153.372 68.2422 154.521 68.6523 155.86C69.0625 157.187 69.2676 158.656 69.2676 160.27V162.546H51.877V158.813H63.9355V158.403C63.9082 157.542 63.7441 156.756 63.4434 156.045C63.1426 155.32 62.6777 154.746 62.0488 154.322C61.4199 153.885 60.6064 153.666 59.6084 153.666C58.8018 153.666 58.0977 153.844 57.4961 154.199C56.9082 154.541 56.416 155.033 56.0195 155.676C55.6367 156.305 55.3496 157.057 55.1582 157.932C54.9668 158.807 54.8711 159.777 54.8711 160.844V161.664C54.8711 162.594 54.9941 163.455 55.2402 164.248C55.5 165.041 55.876 165.731 56.3682 166.319C56.874 166.894 57.4756 167.345 58.1729 167.673C58.8838 167.987 59.6904 168.145 60.5928 168.145C61.7275 168.145 62.7529 167.926 63.6689 167.488C64.5986 167.037 65.4053 166.374 66.0889 165.499L68.8164 168.329C68.3516 169.013 67.7227 169.669 66.9297 170.298C66.1504 170.927 65.207 171.439 64.0996 171.836C62.9922 172.219 61.7139 172.41 60.2646 172.41ZM73.1641 149.811H78.6191V173.641C78.6191 175.213 78.332 176.546 77.7578 177.64C77.1973 178.733 76.3838 179.561 75.3174 180.121C74.251 180.682 72.9453 180.962 71.4004 180.962C70.9219 180.962 70.4434 180.935 69.9648 180.88C69.4863 180.825 69.0146 180.736 68.5498 180.613L68.5703 176.43C68.8711 176.484 69.1787 176.525 69.4932 176.553C69.8076 176.594 70.1221 176.614 70.4365 176.614C71.0244 176.614 71.5166 176.512 71.9131 176.307C72.3232 176.102 72.6309 175.78 72.8359 175.343C73.0547 174.905 73.1641 174.338 73.1641 173.641V149.811ZM72.7129 144.007C72.7129 143.2 72.9863 142.53 73.5332 141.997C74.0938 141.464 74.8457 141.197 75.7891 141.197C76.7324 141.197 77.4775 141.464 78.0244 141.997C78.585 142.53 78.8652 143.2 78.8652 144.007C78.8652 144.8 78.585 145.463 78.0244 145.996C77.4775 146.529 76.7324 146.796 75.7891 146.796C74.8457 146.796 74.0938 146.529 73.5332 145.996C72.9863 145.463 72.7129 144.8 72.7129 144.007ZM89.3857 149.811V172H83.9512V149.811H89.3857ZM83.582 144.007C83.582 143.2 83.8555 142.53 84.4023 141.997C84.9629 141.464 85.7148 141.197 86.6582 141.197C87.6016 141.197 88.3467 141.464 88.8936 141.997C89.4541 142.53 89.7344 143.2 89.7344 144.007C89.7344 144.8 89.4541 145.463 88.8936 145.996C88.3467 146.529 87.6016 146.796 86.6582 146.796C85.7148 146.796 84.9629 146.529 84.4023 145.996C83.8555 145.463 83.582 144.8 83.582 144.007Z" fill="white"/>
<path d="M56.4199 91H42.1797L42.2695 80.4883H56.4199C59.9538 80.4883 62.9336 79.6947 65.3594 78.1074C67.7852 76.4902 69.612 74.1393 70.8398 71.0547C72.0977 67.9701 72.7266 64.2415 72.7266 59.8691V56.6797C72.7266 53.3255 72.3672 50.3757 71.6484 47.8301C70.9596 45.2845 69.9264 43.1432 68.5488 41.4062C67.1712 39.6693 65.4792 38.3665 63.4727 37.498C61.4661 36.5996 59.1602 36.1504 56.5547 36.1504H41.9102V25.5938H56.5547C60.9271 25.5938 64.9251 26.3424 68.5488 27.8398C72.2025 29.3073 75.362 31.4186 78.0273 34.1738C80.6927 36.929 82.7441 40.2233 84.1816 44.0566C85.6491 47.86 86.3828 52.0977 86.3828 56.7695V59.8691C86.3828 64.5111 85.6491 68.7487 84.1816 72.582C82.7441 76.4154 80.6927 79.7096 78.0273 82.4648C75.3919 85.1901 72.2324 87.3014 68.5488 88.7988C64.8952 90.2663 60.8522 91 56.4199 91ZM49.8164 25.5938V91H36.3398V25.5938H49.8164Z" fill="white"/>
</svg>
